Coordinates
version=1
nRows=18
nColumns=22
inDegrees=yes

Units are S.I. units (second, meters, Newtons, ...)
If the header above contains a line with 'inDegrees', this indicates whether rotational values are in degrees (yes) or radians (no).

endheader
time	pelvis_tilt	pelvis_list	pelvis_rotation	pelvis_tx	pelvis_ty	pelvis_tz	hip_flexion_r	hip_adduction_r	hip_rotation_r	knee_angle_r	ankle_angle_r	subtalar_angle_r	hip_flexion_l	hip_adduction_l	hip_rotation_l	knee_angle_l	ankle_angle_l	subtalar_angle_l	lumbar_extension	lumbar_bending	lumbar_rotation
      0.01000000	     -8.02576850	     -2.14062165	     -6.75523716	     -1.04326037	      0.88640148	     -0.55475288	      8.14977157	     -0.43417957	      7.72668525	     -6.67166988	     10.69018529	     -0.44405168	      5.60393638	     -5.40129459	    -13.07763546	     -9.96060877	     14.76712816	      6.20746196	      5.32741416	      1.97732480	      8.24465114
      0.02000000	     -8.03229933	     -2.12934343	     -6.75736164	     -1.04319852	      0.88639258	     -0.55472314	      8.13902572	     -0.44607403	      7.72406212	     -6.64340056	     10.70829200	     -0.44696548	      5.61215167	     -5.39246634	    -13.10334030	     -9.96861686	     14.75447691	      6.21618523	      5.33558100	      1.96584244	      8.23178154
      0.03000000	     -8.03604255	     -2.12777390	     -6.76197841	     -1.04315650	      0.88638746	     -0.55468207	      8.13952084	     -0.44492285	      7.72295110	     -6.64165799	     10.70838144	     -0.44714859	      5.61237029	     -5.39355340	    -13.10387380	     -9.96855934	     14.75448245	      6.21740404	      5.33385539	      1.96367513	      8.22988326
      0.04000000	     -8.04190531	     -2.12626593	     -6.76887072	     -1.04310148	      0.88637960	     -0.55463894	      8.14047961	     -0.44337264	      7.72050798	     -6.63764425	     10.70916493	     -0.44738575	      5.61279629	     -5.39466237	    -13.10721145	     -9.96759777	     14.75474791	      6.21937781	      5.33567651	      1.96391632	      8.22530067
      0.05000000	     -8.04545044	     -2.12524977	     -6.76895544	     -1.04304182	      0.88637272	     -0.55461357	      8.13939757	     -0.44320269	      7.72039626	     -6.63793742	     10.70921463	     -0.44739489	      5.61263320	     -5.39477355	    -13.10758294	     -9.96761240	     14.75478330	      6.21951687	      5.33472552	      1.96450273	      8.22493824
      0.06000000	     -8.06961294	     -2.12868621	     -6.77219017	     -1.04294100	      0.88633086	     -0.55458893	      8.14616174	     -0.43723741	      7.71916279	     -6.61559952	     10.71658216	     -0.44796705	      5.62417911	     -5.40131581	    -13.13281284	     -9.95346728	     14.75956554	      6.22718357	      5.36446765	      1.97774777	      8.19821057
      0.07000000	     -8.07347891	     -2.12747318	     -6.77242248	     -1.04287401	      0.88631874	     -0.55456704	      8.14539441	     -0.43732515	      7.71933961	     -6.61590073	     10.71654449	     -0.44798422	      5.62364194	     -5.40143033	    -13.13262968	     -9.95426237	     14.75959702	      6.22736693	      5.36360408	      1.97884732	      8.19788780
      0.08000000	     -8.10339179	     -2.13152706	     -6.77677858	     -1.04278566	      0.88626604	     -0.55454881	      8.15843029	     -0.43066606	      7.73823368	     -6.59259379	     10.72364480	     -0.44877075	      5.64602690	     -5.40967852	    -13.13713391	     -9.95100423	     14.76855219	      6.23604773	      5.39730065	      1.99712529	      8.16691000
      0.09000000	     -8.10846654	     -2.13018763	     -6.77927193	     -1.04269182	      0.88624808	     -0.55452382	      8.15717367	     -0.43111386	      7.73867040	     -6.59362943	     10.72298155	     -0.44899106	      5.64513093	     -5.41037988	    -13.13592185	     -9.95495141	     14.76904917	      6.23690920	      5.40344247	      2.00115956	      8.16621634
      0.10000000	     -8.14175528	     -2.13891462	     -6.78815681	     -1.04259592	      0.88619004	     -0.55446926	      8.17581301	     -0.41548473	      7.74221486	     -6.57534709	     10.72652305	     -0.45058267	      5.66645741	     -5.42649005	    -13.15007266	     -9.94587808	     14.78130347	      6.24333891	      5.44127589	      2.02118975	      8.15158470
      0.11000000	     -8.14726585	     -2.13712313	     -6.79913548	     -1.04252038	      0.88617326	     -0.55438812	      8.17708486	     -0.41147419	      7.73950696	     -6.57463974	     10.72600517	     -0.45071878	      5.66540517	     -5.43071998	    -13.14882200	     -9.94987014	     14.78183062	      6.24403828	      5.44394416	      2.01928691	      8.14942424
      0.12000000	     -8.17642735	     -2.15007852	     -6.81982008	     -1.04241153	      0.88612401	     -0.55429486	      8.19782400	     -0.38822341	      7.72285961	     -6.56890076	     10.72671701	     -0.45154361	      5.67793832	     -5.45406318	    -13.18089462	     -9.93948939	     14.79419926	      6.24997585	      5.47812161	      2.04322498	      8.15138508
      0.13000000	     -8.18167220	     -2.14829686	     -6.83309892	     -1.04233128	      0.88610969	     -0.55419390	      8.19883439	     -0.38255846	      7.72013253	     -6.56857840	     10.72664464	     -0.45150383	      5.67622591	     -5.45944820	    -13.18050872	     -9.94328684	     14.79530172	      6.25092024	      5.48117719	      2.03915846	      8.14827607
      0.14000000	     -8.20849140	     -2.16103423	     -6.85488488	     -1.04220907	      0.88606086	     -0.55409755	      8.21970794	     -0.35823905	      7.71061960	     -6.56966635	     10.73071445	     -0.45141951	      5.68526029	     -5.48195906	    -13.22374762	     -9.93158571	     14.81522751	      6.26199155	      5.51491236	      2.06178840	      8.14881306
      0.15000000	     -8.21258533	     -2.15917730	     -6.86503820	     -1.04210833	      0.88604761	     -0.55403116	      8.21871088	     -0.35575923	      7.71026833	     -6.57106491	     10.73100052	     -0.45142733	      5.68293288	     -5.48399534	    -13.22346938	     -9.93617186	     14.81663244	      6.26361576	      5.51929058	      2.06149403	      8.14631025
      0.16000000	     -8.22841506	     -2.16156488	     -6.87864678	     -1.04198305	      0.88601238	     -0.55397264	      8.22750933	     -0.34713594	      7.72147148	     -6.57176160	     10.74171488	     -0.45213699	      5.68528496	     -5.49052576	    -13.25386703	     -9.92749720	     14.83990705	      6.27987901	      5.54101663	      2.07191654	      8.13335235
      0.17000000	     -8.23097416	     -2.15981211	     -6.88085625	     -1.04185962	      0.88600060	     -0.55393915	      8.22305882	     -0.34641690	      7.72332418	     -6.57518262	     10.74229544	     -0.45228673	      5.68197590	     -5.48982379	    -13.25400398	     -9.93118569	     14.84117914	      6.28173008	      5.54747791	      2.07306524	      8.13222866
      0.18000000	     -8.23693480	     -2.15626053	     -6.88480817	     -1.04172444	      0.88597514	     -0.55390813	      8.21934045	     -0.34818109	      7.74286834	     -6.57473781	     10.75776922	     -0.45451108	      5.67625361	     -5.48668237	    -13.26772697	     -9.92435618	     14.86188602	      6.29882964	      5.55980099	      2.07490540	      8.10915303
